<?xml version="1.0" standalone="no"?>
<!DOCTYPE svg PUBLIC "-//W3C//DTD SVG 20010904//EN"
 "http://www.w3.org/TR/2001/REC-SVG-20010904/DTD/svg10.dtd">
<svg version="1.0" xmlns="http://www.w3.org/2000/svg"
 width="800.000000pt" height="800.000000pt" viewBox="0 0 800.000000 800.000000"
 preserveAspectRatio="xMidYMid meet">
<metadata>
Created by potrace 1.11, written by Peter Selinger 2001-2013
</metadata>
<g transform="translate(0.000000,800.000000) scale(0.100000,-0.100000)"
fill="#000000" stroke="none">
<path d="M1109 7008 c0 -2 -1 -37 -2 -78 l-2 -75 283 -3 282 -2 0 -2840 0
-2840 -282 -2 -282 -3 1 -75 1 -75 1398 0 c1467 0 1492 1 1859 46 570 70 1036
214 1455 448 414 231 698 527 896 931 194 398 291 808 324 1375 41 697 -60
1360 -276 1814 -219 461 -525 764 -1019 1006 -417 206 -965 332 -1577 365
-165 8 -3056 16 -3059 8z m2886 -187 c367 -51 606 -155 775 -339 240 -260 391
-675 464 -1272 37 -305 41 -408 41 -1135 0 -606 -3 -752 -18 -922 -19 -220
-53 -468 -87 -633 -166 -811 -522 -1210 -1178 -1321 -105 -17 -172 -21 -387
-22 l-260 -2 -3 2839 -2 2839 252 -6 c174 -3 300 -12 403 -26z"/>
</g>
</svg>
