<?xml version="1.0" standalone="no"?>
<!DOCTYPE svg PUBLIC "-//W3C//DTD SVG 20010904//EN"
 "http://www.w3.org/TR/2001/REC-SVG-20010904/DTD/svg10.dtd">
<svg version="1.0" xmlns="http://www.w3.org/2000/svg"
 width="359.000000pt" height="359.000000pt" viewBox="0 0 359.000000 359.000000"
 preserveAspectRatio="xMidYMid meet">
<metadata>
Created by potrace 1.11, written by Peter Selinger 2001-2013
</metadata>
<g transform="translate(0.000000,359.000000) scale(0.100000,-0.100000)"
fill="#000000" stroke="none">
<path d="M1036 3225 c-39 -39 -39 -43 7 -161 17 -43 24 -82 25 -140 l2 -80
-133 -38 c-72 -21 -169 -49 -214 -62 l-83 -25 0 -108 c0 -100 -2 -109 -20
-114 -11 -3 -17 -1 -14 4 9 15 -15 39 -32 32 -17 -6 -18 -35 -2 -51 9 -9 9
-12 0 -12 -9 0 -12 -29 -11 -102 1 -57 -2 -149 -6 -204 -5 -81 -4 -107 8 -125
8 -13 17 -38 20 -55 5 -26 2 -33 -14 -37 -21 -6 -21 -10 -16 -224 5 -251 8
-271 36 -336 28 -65 28 -117 1 -117 -11 0 -20 -3 -20 -7 0 -11 54 -115 128
-248 33 -60 67 -121 75 -135 10 -19 23 -26 48 -28 69 -4 89 -14 121 -55 17
-23 63 -79 100 -123 37 -45 68 -84 68 -88 0 -3 -10 -4 -23 -1 -31 8 -61 -27
-75 -90 -6 -27 -14 -58 -17 -67 -6 -14 -2 -18 15 -18 13 0 24 8 27 20 4 15 14
20 38 20 40 0 49 17 46 81 -2 31 2 49 13 58 16 14 16 7 1 -71 -6 -32 58 -39
77 -8 9 14 24 20 50 20 27 0 41 6 52 22 12 17 24 22 49 20 23 -2 38 3 51 17
11 12 29 22 40 22 18 1 18 2 3 6 -11 3 -16 10 -13 20 3 8 6 35 6 59 0 38 3 44
21 44 19 0 20 -4 14 -65 -8 -69 1 -83 27 -42 12 18 24 22 64 22 34 0 55 6 69
19 21 19 76 19 235 0 39 -5 52 -3 45 4 -6 6 -59 14 -118 18 -103 7 -109 8
-118 31 -5 13 -9 39 -9 58 l0 33 -81 7 c-95 8 -118 0 -28 -10 48 -6 58 -10 45
-17 -19 -10 -22 -10 -206 15 -154 21 -331 37 -414 37 -83 0 -206 20 -206 33 0
6 21 7 53 4 217 -24 383 -38 433 -35 40 2 6 7 -106 15 -193 15 -339 31 -360
40 -8 3 -19 7 -24 7 -14 1 -196 328 -189 339 3 5 12 -5 19 -22 16 -38 36 -39
63 -5 26 33 52 28 73 -16 9 -19 17 -29 18 -22 0 7 -5 22 -10 33 -9 17 -7 19
17 19 17 0 33 -8 41 -20 16 -26 38 -26 52 1 16 28 52 21 68 -14 8 -16 16 -26
19 -24 2 3 0 14 -6 25 -6 11 -8 22 -5 24 11 11 54 -6 59 -23 9 -27 52 -25 60
2 6 19 13 21 58 16 33 -3 55 -11 64 -23 17 -24 52 -25 66 -2 19 29 92 24 140
-9 l40 -28 15 23 c22 33 120 26 129 -10 7 -25 49 -24 63 2 9 16 21 20 66 20
48 0 56 -3 66 -24 16 -36 34 -39 57 -9 19 23 25 25 74 19 35 -5 59 -14 70 -27
14 -16 21 -17 37 -9 11 6 20 16 20 22 0 18 120 5 132 -15 11 -21 32 -22 49 -1
20 24 119 13 138 -15 17 -27 36 -27 54 0 22 30 113 25 134 -8 19 -29 47 -30
66 -2 14 18 21 20 72 14 44 -6 59 -12 62 -26 7 -25 40 -24 53 1 7 13 21 20 40
20 30 0 37 -8 22 -25 -15 -17 -54 -85 -49 -85 8 0 67 89 67 101 0 11 3 11 35
-1 14 -5 23 -14 20 -20 -10 -16 41 -12 55 5 7 8 17 15 22 15 13 0 3 -25 -23
-59 -17 -22 -89 -134 -196 -304 -24 -38 -25 -39 -71 -33 -26 4 -105 11 -177
16 -71 6 -191 15 -265 21 -74 6 -170 11 -214 12 l-79 2 -18 -54 c-19 -56 -15
-70 19 -71 15 0 32 42 35 83 l2 30 90 -7 c116 -8 312 -22 494 -36 132 -9 162
-14 150 -23 -7 -6 -626 37 -694 48 -16 3 -25 2 -19 0 12 -6 -4 -85 -20 -96 -7
-5 26 -49 37 -49 2 0 1 16 -1 35 -5 45 5 88 19 79 7 -4 9 -30 7 -65 -4 -56 -3
-59 19 -59 12 0 27 -9 33 -20 15 -29 30 -25 17 5 -7 13 -21 26 -32 27 -17 3
-20 10 -18 42 4 62 23 69 24 10 l1 -49 12 38 c10 34 14 37 25 23 7 -8 12 -32
11 -53 -4 -57 -2 -63 20 -63 11 0 20 -4 20 -9 0 -20 33 -42 55 -37 17 4 25 0
34 -20 6 -15 14 -24 17 -21 3 3 1 14 -5 25 -6 12 -11 40 -11 63 0 35 2 40 15
29 8 -7 15 -34 17 -68 3 -48 6 -57 23 -61 11 -2 22 -6 25 -10 11 -16 55 -41
70 -40 10 0 11 2 3 6 -20 7 -17 103 2 103 12 0 15 -14 17 -62 1 -57 2 -58 5
-16 2 27 7 48 11 48 20 -1 30 -20 33 -62 3 -30 1 -44 -5 -38 -13 13 -26 13
-26 1 0 -5 9 -12 19 -16 19 -6 19 -7 3 -35 -9 -17 -21 -30 -26 -30 -5 0 -32
13 -60 29 -28 16 -76 42 -106 58 -30 17 -130 71 -222 122 -91 51 -181 96 -200
102 -18 5 -84 13 -145 16 -128 7 -86 20 -408 -126 -163 -74 -191 -88 -254
-117 l-66 -31 -12 21 c-10 16 -12 17 -13 5 0 -36 26 -42 82 -16 29 13 78 35
108 47 30 13 59 27 64 31 4 4 47 -25 95 -65 169 -142 324 -252 429 -305 l61
-31 78 50 c43 27 96 62 118 78 22 16 97 67 166 114 l126 86 81 -43 c75 -40 83
-42 98 -28 23 24 34 59 34 113 0 40 -5 54 -26 75 l-27 27 84 84 c83 84 84 84
135 84 l52 0 83 133 c45 72 111 174 146 225 57 83 61 92 41 92 -21 0 -23 4
-23 58 1 48 7 68 31 108 17 27 44 71 59 98 l28 50 -2 345 c-1 209 -6 347 -11
349 -6 2 -10 19 -10 37 0 24 -7 39 -22 49 -12 9 -18 16 -13 16 6 0 10 36 11
83 0 45 10 131 22 190 12 59 22 128 22 152 0 41 -3 46 -33 59 -32 13 -34 18
-40 71 -3 32 -10 61 -14 64 -4 3 -8 12 -8 20 0 8 -8 19 -17 25 -26 16 -57 -16
-38 -39 16 -19 17 -18 -43 -33 -65 -16 -97 -15 -97 3 0 21 -48 39 -66 24 -10
-8 -66 9 -241 74 -126 46 -245 90 -265 97 -32 10 -38 16 -38 40 0 34 -19 80
-33 80 -5 0 -4 7 3 16 11 12 11 18 -2 30 -13 13 -16 13 -28 -1 -11 -13 -11
-21 -2 -35 10 -16 8 -20 -11 -26 -12 -4 -64 -25 -115 -47 l-93 -39 -16 21
c-13 19 -17 20 -32 8 -9 -7 -63 -28 -121 -45 -167 -50 -611 -172 -624 -172 -9
0 -15 25 -20 78 -5 66 -3 84 14 119 11 22 22 60 26 83 6 37 4 44 -27 76 -18
19 -41 34 -51 34 -9 0 -33 -16 -52 -35z m1144 -35 c0 -5 -5 -10 -11 -10 -5 0
-7 5 -4 10 3 6 8 10 11 10 2 0 4 -4 4 -10z m-1030 -15 c0 -17 -2 -18 -25 -9
-13 5 -14 8 -3 15 19 13 28 11 28 -6z m-80 -5 c-20 -13 -40 -13 -40 0 0 6 12
10 28 10 21 0 24 -2 12 -10z m53 -19 c4 0 7 -5 7 -9 0 -4 -16 -6 -35 -4 -19 2
-33 8 -30 12 4 6 26 7 58 1z m1081 -68 c1 -61 -24 -67 -38 -10 -11 42 -26 46
-73 18 -28 -18 -31 -24 -27 -58 6 -45 -10 -77 -26 -53 -5 8 -10 27 -10 43 0
23 -4 27 -28 27 -50 0 -72 -25 -72 -81 0 -53 -16 -66 -26 -21 -11 51 -13 54
-36 47 -51 -15 -68 -34 -68 -74 0 -22 -3 -47 -7 -57 -4 -12 -3 -15 5 -10 7 4
12 15 12 26 0 12 14 23 41 34 39 16 42 16 54 -1 12 -16 15 -15 31 14 10 17 33
38 50 46 28 14 33 14 47 0 13 -13 19 -14 31 -3 9 7 16 20 16 30 0 11 14 24 38
33 34 14 38 14 46 -3 7 -15 13 -17 31 -8 19 8 51 0 176 -45 293 -106 373 -137
392 -154 18 -17 16 -18 -50 -35 -85 -21 -94 -22 -87 -3 8 19 -13 45 -35 45
-24 0 -44 -36 -32 -59 9 -16 3 -20 -58 -34 -84 -21 -80 -21 -74 2 6 23 -4 30
-45 33 -20 1 -28 6 -23 13 14 18 1 85 -18 86 -9 0 -11 3 -5 5 18 8 4 42 -28
69 -58 49 -150 22 -161 -47 -2 -18 3 -62 12 -98 12 -48 14 -73 7 -93 -8 -22
-7 -30 4 -37 11 -7 11 -10 2 -10 -7 0 -15 7 -18 15 -4 8 -10 12 -15 9 -5 -3
-7 1 -4 8 3 7 1 20 -5 28 -7 12 -13 9 -32 -15 -13 -17 -36 -43 -51 -60 l-29
-30 6 27 c3 14 9 34 12 43 6 15 4 16 -14 6 -35 -19 -39 -12 -5 8 27 17 32 27
38 76 6 48 4 61 -12 83 -13 17 -31 28 -51 30 -25 3 -35 -3 -57 -32 -25 -32
-60 -134 -50 -144 8 -8 34 19 41 41 14 48 64 78 64 39 0 -10 -13 -56 -28 -102
-21 -64 -35 -88 -53 -97 -21 -11 -24 -10 -27 5 -2 9 -8 34 -13 54 l-10 37 -34
-20 c-19 -12 -35 -18 -35 -15 0 3 14 12 30 21 37 19 38 34 1 69 l-29 28 -43
-21 c-24 -12 -36 -16 -26 -9 54 37 54 37 20 38 -50 0 -82 -35 -90 -96 -4 -36
-2 -54 7 -59 9 -5 11 -4 6 3 -6 11 -1 14 20 11 13 -1 31 35 26 53 -3 13 1 18
17 18 14 0 27 -12 41 -40 20 -39 20 -39 0 -50 -11 -6 -21 -21 -21 -33 -1 -20
-2 -20 -6 -2 -3 11 -9 30 -14 43 l-9 23 -31 -22 c-31 -22 -33 -36 -14 -81 5
-14 2 -18 -14 -18 -12 0 -21 5 -21 11 0 5 -4 7 -10 4 -5 -3 -10 1 -10 9 0 14
-18 21 -42 17 -4 0 -4 21 -1 48 5 44 3 50 -20 65 -28 19 -68 14 -89 -11 -11
-14 -10 -15 12 -9 17 4 13 0 -12 -13 -30 -17 -38 -29 -49 -71 -9 -36 -18 -50
-30 -50 -22 0 -35 -36 -19 -55 12 -15 12 -15 -70 -35 -25 -6 -52 -13 -61 -16
-13 -3 -15 1 -12 21 6 28 -20 45 -45 28 -23 -14 -25 -29 -8 -46 14 -13 -13
-22 -252 -81 -147 -37 -278 -69 -291 -73 -19 -5 -22 -3 -15 8 5 8 9 34 9 57 0
41 2 45 38 59 35 14 39 14 51 -2 16 -22 36 -12 36 20 0 17 9 27 41 39 37 15
43 15 59 1 18 -16 30 -11 30 14 0 23 89 59 100 41 7 -11 11 -11 24 -1 9 8 16
19 16 26 0 18 55 38 85 31 20 -5 27 -2 36 16 6 13 30 31 57 42 26 11 103 46
171 78 240 113 263 122 273 104 13 -24 27 -20 34 10 9 35 68 62 92 42 14 -11
15 -10 8 7 -4 11 -10 32 -13 48 -6 29 -12 30 -76 5 -26 -10 -27 -13 -21 -59 8
-56 -8 -67 -25 -18 -24 69 -22 70 122 129 72 30 197 82 277 116 88 38 149 59
154 53 6 -5 10 -30 10 -56z m-1086 19 c9 -7 10 -15 3 -35 -15 -38 -46 -35 -60
4 -6 18 -11 34 -11 35 0 8 55 3 68 -4z m1032 -17 c0 -14 -37 -35 -61 -35 -19
0 -8 20 19 34 35 19 42 19 42 1z m-240 -15 c0 -5 -2 -10 -4 -10 -3 0 -8 5 -11
10 -3 6 -1 10 4 10 6 0 11 -4 11 -10z m-60 -45 c-14 -8 -32 -14 -40 -14 -8 0
-1 7 15 14 39 18 57 18 25 0z m-70 -4 c0 -6 -4 -13 -10 -16 -5 -3 -10 1 -10 9
0 9 5 16 10 16 6 0 10 -4 10 -9z m200 -22 c0 -14 -27 -10 -33 5 -4 10 0 12 14
9 10 -3 19 -9 19 -14z m-230 -8 c0 -5 -15 -15 -32 -22 -18 -7 -36 -14 -40 -17
-5 -2 -8 4 -8 12 0 17 31 34 63 35 9 1 17 -3 17 -8z m-99 -34 c-13 -13 -26 -3
-16 12 3 6 11 8 17 5 6 -4 6 -10 -1 -17z m232 10 c3 -8 -8 -19 -25 -26 -25
-11 -32 -11 -38 0 -6 8 -1 17 13 25 30 16 44 17 50 1z m-267 -63 l-2 -65 -109
-50 c-61 -28 -132 -61 -160 -74 -65 -31 -186 -85 -190 -85 -2 0 -4 8 -4 18 0
9 -3 55 -7 102 l-6 85 118 33 c106 29 357 100 360 101 1 1 1 -28 0 -65z m134
6 c0 -12 -35 -31 -44 -23 -3 3 -6 1 -6 -5 0 -7 -4 -12 -10 -12 -19 0 -10 27
13 38 28 14 47 15 47 2z m512 -25 c15 -17 29 -23 42 -20 18 4 18 3 -2 -7 -15
-7 -21 -17 -16 -27 3 -9 8 -24 11 -33 5 -16 8 -16 34 -2 16 8 29 12 29 10 0
-3 -13 -12 -30 -21 -25 -13 -30 -22 -30 -50 0 -39 -12 -45 -33 -15 -8 11 -17
17 -22 12 -5 -4 -5 -2 -1 5 4 7 0 26 -9 42 -17 33 -21 131 -5 131 6 0 20 -11
32 -25z m748 4 c0 -5 -7 -9 -15 -9 -15 0 -20 12 -9 23 8 8 24 -1 24 -14z
m-202 -47 c3 -9 -2 -13 -14 -10 -9 1 -19 9 -22 16 -3 9 2 13 14 10 9 -1 19 -9
22 -16z m222 -36 c0 -46 -17 -106 -30 -106 -11 0 -30 57 -30 88 0 23 -3 24
-37 20 -21 -3 -55 -13 -75 -21 -32 -13 -38 -21 -38 -46 0 -36 -16 -81 -29 -81
-6 0 -11 21 -13 48 l-3 47 -49 -2 c-26 -1 -61 -7 -77 -13 -25 -11 -29 -18 -29
-54 0 -49 -9 -86 -20 -86 -5 0 -14 25 -21 55 -14 64 -25 68 -108 34 -50 -21
-51 -22 -51 -65 0 -33 -5 -46 -20 -54 -21 -11 -20 -15 -24 69 -1 18 -8 27 -26
31 -17 4 81 33 315 92 187 47 346 86 353 87 8 1 12 -14 12 -43z m-1960 -56 c0
-55 -2 -61 -24 -70 -18 -6 -34 -5 -56 6 -25 13 -34 13 -46 3 -14 -11 -14 -13
0 -21 25 -14 19 -25 -26 -43 -37 -15 -42 -15 -50 -1 -5 9 -21 16 -35 16 -25 0
-25 0 -7 -45 3 -6 -12 -17 -33 -25 -21 -8 -41 -16 -45 -18 -5 -2 -8 4 -8 12 0
21 -26 31 -44 17 -7 -6 -16 -7 -21 -3 -4 4 -2 -3 4 -15 6 -13 17 -23 24 -24
11 0 -20 -17 -35 -18 -5 -1 -8 41 -8 92 l0 93 88 22 c48 12 134 35 192 51 58
16 111 30 118 30 8 1 12 -17 12 -59z m1535 40 c0 -22 -29 -18 -33 3 -3 14 1
18 15 15 10 -2 18 -10 18 -18z m320 -16 c8 -4 24 -24 34 -45 17 -35 18 -39 3
-39 -22 1 -115 53 -119 67 -6 17 50 29 82 17z m-517 -32 c2 -7 -3 -12 -12 -12
-9 0 -16 7 -16 16 0 17 22 14 28 -4z m352 -47 c0 -25 0 -48 1 -52 0 -8 -46
-24 -110 -38 -25 -5 -32 -4 -26 5 4 7 10 35 14 63 5 47 9 52 36 58 17 4 42 7
58 8 26 1 27 -1 27 -44z m-1060 31 c0 -2 -7 -7 -16 -10 -8 -3 -12 -2 -9 4 6
10 25 14 25 6z m1225 -47 c13 -13 -31 -12 -58 2 -20 9 -20 9 -4 -4 16 -13 14
-15 -23 -25 l-40 -10 20 28 c11 16 20 35 20 44 0 13 5 13 38 -5 20 -12 41 -25
47 -30z m145 36 c0 -1 -9 -5 -19 -8 -13 -3 -18 -1 -14 9 4 10 33 10 33 -1z
m-868 -20 c0 -5 -5 -11 -11 -13 -6 -2 -11 4 -11 13 0 9 5 15 11 13 6 -2 11 -8
11 -13z m896 -27 c-3 -27 -9 -33 -43 -44 l-40 -13 38 2 c43 3 41 7 23 -75 -8
-35 -18 -99 -22 -143 -6 -63 -11 -83 -28 -97 -18 -14 -19 -20 -9 -36 16 -26 1
-32 -81 -32 -61 0 -62 0 -61 28 0 22 -5 28 -26 30 -34 4 -57 -23 -42 -48 10
-16 6 -18 -40 -24 -88 -10 -99 -9 -92 13 8 28 -21 54 -46 41 -10 -6 -19 -19
-19 -30 0 -18 -6 -17 -97 14 -128 44 -172 53 -328 67 -143 13 -310 6 -441 -16
-96 -17 -356 -100 -430 -138 -35 -18 -54 -23 -61 -16 -6 6 -21 9 -34 7 -18 -2
-24 -9 -24 -28 0 -22 -5 -26 -45 -32 -25 -3 -65 -7 -90 -7 -43 -1 -44 0 -23
14 13 9 20 22 17 30 -8 20 -48 19 -65 -1 -11 -14 -11 -18 4 -29 16 -12 14 -14
-20 -19 -21 -3 -81 -8 -133 -11 -52 -3 -117 -8 -145 -11 -66 -8 -50 9 27 28
47 12 58 12 62 1 9 -21 46 -15 55 9 9 25 -45 10 1361 370 173 44 443 113 600
153 157 40 289 74 293 74 5 1 7 -13 5 -31z m-1558 18 c0 -2 -7 -7 -16 -10 -8
-3 -12 -2 -9 4 6 10 25 14 25 6z m1023 -33 c3 -21 8 -45 11 -54 5 -12 -8 -19
-66 -32 -40 -10 -83 -20 -96 -24 l-24 -6 26 28 c17 18 26 39 26 61 0 29 5 36
33 48 17 8 44 15 58 15 23 1 27 -4 32 -36z m-443 23 c0 -2 -8 -10 -17 -17 -16
-13 -17 -12 -4 4 13 16 21 21 21 13z m-1066 -21 c-46 -20 -57 -39 -52 -90 4
-52 -10 -55 -27 -5 -14 42 -23 45 -70 25 -35 -14 -37 -17 -32 -49 6 -38 -1
-76 -13 -76 -4 0 -12 17 -17 38 -10 45 -34 51 -80 22 -30 -18 -33 -24 -33 -72
0 -38 -3 -49 -10 -38 -5 8 -10 28 -10 43 0 36 -20 43 -64 22 -35 -17 -36 -18
-36 -76 0 -65 -12 -76 -29 -28 -26 74 -20 83 77 122 48 19 146 62 217 94 182
83 178 82 195 82 8 -1 1 -7 -16 -14z m1216 -7 c-44 -22 -45 -25 -50 -77 -3
-30 -10 -56 -16 -58 -12 -4 -34 39 -34 67 0 30 -43 36 -98 13 -42 -17 -47 -23
-50 -54 -1 -19 -5 -45 -8 -59 l-6 -25 -19 24 c-10 13 -19 36 -19 52 0 26 -3
29 -32 29 -18 0 -52 -9 -75 -20 -41 -18 -43 -21 -43 -63 0 -24 -6 -52 -14 -63
-14 -18 -15 -18 -22 10 -4 16 -7 42 -8 58 -1 38 -16 41 -91 16 l-65 -21 0 -58
c0 -33 -4 -59 -9 -59 -16 0 -32 28 -38 64 -5 34 -7 36 -46 36 -22 0 -54 -9
-72 -20 -30 -18 -33 -24 -29 -59 2 -22 -2 -46 -11 -57 -13 -18 -15 -17 -29 18
-9 21 -16 44 -16 52 0 31 -48 31 -116 -1 -29 -13 -32 -17 -27 -52 5 -38 -9
-81 -27 -81 -11 0 -33 77 -26 89 17 26 -85 16 -129 -13 -22 -14 -25 -24 -25
-71 0 -29 -5 -57 -10 -60 -13 -8 -40 54 -40 90 0 22 -4 25 -37 26 -22 0 170
52 437 119 261 65 574 143 695 173 252 63 266 65 205 35z m-270 -4 c0 -9 -5
-14 -12 -12 -18 6 -21 28 -4 28 9 0 16 -7 16 -16z m-917 -23 c3 -14 -4 -23
-29 -35 -34 -16 -34 -15 -34 9 0 39 53 61 63 26z m-238 -1 c3 -5 1 -10 -4 -10
-6 0 -11 5 -11 10 0 6 2 10 4 10 3 0 8 -4 11 -10z m655 -33 c0 -58 -19 -107
-41 -107 -11 0 -29 -5 -40 -10 -18 -10 -18 -9 -7 17 6 15 17 33 23 38 6 6 20
31 30 57 19 52 35 54 35 5z m814 28 c-19 -15 -19 -15 1 -8 11 3 25 10 31 15 8
6 13 -2 16 -24 3 -18 8 -40 12 -49 6 -13 -5 -19 -61 -33 -83 -20 -102 -21 -85
-4 7 7 12 34 12 61 0 47 1 49 24 45 14 -3 31 -1 38 3 23 15 33 10 12 -6z
m-514 -19 c0 -18 -17 -29 -30 -21 -8 5 -7 11 1 21 15 18 29 18 29 0z m-847
-35 c3 -13 -3 -22 -20 -30 -35 -16 -43 -14 -43 13 0 18 7 26 23 29 12 2 25 5
28 6 4 0 9 -8 12 -18z m1207 -4 c0 -12 7 -33 16 -45 12 -18 13 -23 2 -27 -13
-4 -161 -45 -165 -45 -1 0 5 12 13 28 7 15 14 34 14 43 0 15 81 66 108 68 6 1
12 -9 12 -22z m-1440 3 c0 -5 -7 -7 -15 -4 -8 4 -15 8 -15 10 0 2 7 4 15 4 8
0 15 -4 15 -10z m875 -9 c3 -5 1 -12 -5 -16 -5 -3 -10 1 -10 9 0 18 6 21 15 7z
m295 -27 c0 -3 -5 -14 -10 -24 -14 -27 3 -34 39 -15 37 18 41 19 41 1 0 -7 7
-19 15 -26 8 -7 15 -15 15 -19 0 -6 -124 -41 -146 -41 -13 0 -6 40 17 98 12
27 29 44 29 26z m-1300 -14 c0 -5 -4 -10 -10 -10 -5 0 -10 5 -10 10 0 6 5 10
10 10 6 0 10 -4 10 -10z m230 -5 c0 -14 -37 -35 -61 -35 -16 0 -10 29 9 39 25
15 52 13 52 -4z m760 11 c0 -2 -7 -7 -16 -10 -8 -3 -12 -2 -9 4 6 10 25 14 25
6z m-180 -21 c0 -8 -4 -15 -10 -15 -5 0 -10 7 -10 15 0 8 5 15 10 15 6 0 10
-7 10 -15z m333 -27 c12 -13 30 -37 39 -54 l17 -31 -284 -72 c-156 -39 -286
-71 -290 -71 -3 0 2 11 11 25 8 13 16 43 17 67 2 40 5 44 37 55 58 20 80 17
80 -11 0 -39 18 -76 37 -76 9 0 28 13 42 29 32 36 119 68 127 46 8 -20 42 -29
59 -15 8 7 15 25 15 40 0 15 7 33 15 40 8 7 15 18 15 25 0 8 8 16 18 18 9 3
18 5 20 6 1 0 12 -9 25 -21z m-1043 -18 c0 -11 -7 -20 -15 -20 -15 0 -21 21
-8 33 12 13 23 7 23 -13z m520 -6 c0 -16 -16 -19 -25 -4 -8 13 4 32 16 25 5
-4 9 -13 9 -21z m-570 -14 c0 -11 -4 -20 -10 -20 -5 0 -10 9 -10 20 0 11 5 20
10 20 6 0 10 -9 10 -20z m524 -122 c4 -23 14 -50 22 -59 13 -14 8 -17 -53 -32
-38 -9 -79 -20 -93 -23 -21 -6 -23 -4 -12 7 6 7 12 37 12 65 0 29 4 56 10 59
8 5 52 15 101 24 4 1 9 -18 13 -41z m-554 -2 c0 -3 -4 -8 -10 -11 -5 -3 -10
-1 -10 4 0 6 5 11 10 11 6 0 10 -2 10 -4z m228 -10 c-14 -10 -18 -28 -18 -75
0 -33 -4 -61 -8 -61 -8 0 -32 49 -46 92 -3 10 -18 18 -38 20 -30 3 -27 5 27
19 33 9 69 17 80 17 19 1 19 1 3 -12z m145 -94 c17 -19 17 -20 -5 -26 -40 -10
-48 -7 -62 27 -8 17 -15 26 -15 19 -1 -7 4 -22 10 -34 6 -11 8 -22 6 -25 -3
-3 -12 8 -21 24 -8 15 -15 24 -16 20 0 -5 5 -17 10 -28 12 -21 10 -22 -43 -33
-26 -6 -27 -5 -17 14 6 12 10 42 9 67 -3 50 8 62 71 73 34 6 35 5 45 -36 6
-23 18 -51 28 -62z m1305 87 c45 -5 94 -14 108 -19 22 -9 24 -13 13 -26 -10
-12 -10 -20 -1 -35 11 -18 9 -19 -42 -19 -29 0 -67 -3 -83 -6 -29 -6 -30 -5
-25 25 3 22 0 33 -12 37 -23 9 -48 -16 -43 -42 5 -28 -8 -34 -78 -34 -51 0
-54 1 -57 28 -2 19 -9 28 -24 30 -28 4 -56 -25 -49 -49 6 -17 1 -19 -42 -20
-26 0 -62 -2 -79 -3 -28 -3 -30 -1 -26 20 3 16 -1 26 -12 30 -22 8 -49 -15
-43 -38 3 -10 0 -18 -6 -19 -7 0 -42 -3 -79 -7 -61 -7 -66 -6 -57 9 12 24 1
49 -21 49 -22 0 -34 -16 -35 -45 0 -17 -9 -21 -70 -27 -122 -11 -224 -15 -235
-8 -5 3 7 16 27 27 48 26 88 39 79 25 -21 -34 38 -58 65 -26 11 14 10 19 -10
35 -17 14 -19 19 -8 19 9 0 62 16 119 35 203 70 448 88 726 54z m772 -14 c0
-8 -7 -15 -15 -15 -8 0 -15 7 -15 15 0 8 7 15 15 15 8 0 15 -7 15 -15z m-2465
-5 c3 -5 1 -10 -4 -10 -6 0 -11 5 -11 10 0 6 2 10 4 10 3 0 8 -4 11 -10z m66
-18 c-33 -16 -35 -20 -35 -72 -1 -42 -5 -55 -17 -58 -19 -4 -39 44 -39 93 0
30 3 33 43 42 69 17 86 15 48 -5z m2199 3 c0 -8 -9 -15 -20 -15 -11 0 -20 7
-20 15 0 8 9 15 20 15 11 0 20 -7 20 -15z m-200 -16 c0 -5 -10 -9 -21 -9 -18
0 -19 2 -9 15 12 15 30 12 30 -6z m-1907 -18 c3 -16 17 -42 31 -57 l24 -29
-71 -17 c-49 -12 -75 -14 -82 -7 -5 6 -10 35 -10 65 0 48 3 55 25 63 14 5 37
10 51 10 21 1 28 -5 32 -28z m1804 -12 c-7 -4 -38 -9 -69 -11 -52 -4 -56 -3
-37 10 11 8 18 20 16 26 -4 10 9 9 48 -3 30 -9 49 -19 42 -22z m-109 19 c-6
-18 -28 -21 -28 -4 0 9 7 16 16 16 9 0 14 -5 12 -12z m-203 -8 c3 -6 -1 -13
-10 -16 -19 -8 -30 0 -20 15 8 14 22 14 30 1z m835 -60 c0 -46 -3 -60 -14 -60
-19 0 -29 16 -36 60 -5 34 -6 35 -56 38 -77 4 -96 -6 -98 -56 -2 -41 -19 -72
-32 -59 -4 4 -12 28 -19 54 -10 42 -16 48 -40 51 -16 2 -48 -2 -71 -8 -42 -12
-43 -14 -46 -58 -4 -62 -24 -65 -41 -5 l-14 48 -48 3 c-26 2 -61 -2 -77 -9
-25 -10 -28 -16 -23 -40 7 -31 -1 -69 -15 -69 -5 0 -15 19 -22 43 -15 51 -22
57 -73 57 -73 0 -82 -7 -89 -61 -4 -27 -10 -49 -15 -49 -10 0 -31 46 -31 69 0
11 -7 22 -16 25 -25 10 -81 7 -109 -6 -22 -10 -25 -18 -25 -58 0 -26 -3 -50
-7 -53 -13 -14 -33 17 -33 53 0 34 -4 39 -32 49 -24 9 -45 9 -83 0 l-50 -11 4
-44 c2 -34 -1 -45 -13 -50 -23 -9 -27 -3 -29 45 -1 38 -4 41 -34 47 -18 3 -48
3 -66 0 -17 -4 -40 -7 -49 -7 -15 0 -18 -10 -18 -55 0 -69 -18 -69 -40 -1
l-15 47 -52 0 c-67 0 -83 -7 -83 -37 0 -13 -7 -38 -16 -55 l-16 -32 -14 25
c-7 13 -13 36 -14 51 0 34 -29 43 -95 34 -38 -6 -45 -11 -45 -29 0 -12 -5 -40
-11 -61 -9 -33 -13 -37 -21 -23 -5 9 -12 36 -16 60 -7 41 -8 42 -52 45 -25 2
-62 -1 -83 -8 -36 -11 -37 -12 -37 -60 0 -27 -4 -51 -9 -54 -11 -7 -45 69 -37
83 12 18 -34 33 -82 26 -72 -11 -81 -20 -75 -80 4 -42 2 -53 -11 -58 -20 -8
-36 27 -36 76 0 31 -2 32 -46 35 -26 2 -60 0 -75 -3 -26 -6 -29 -10 -29 -50 0
-44 -21 -77 -35 -54 -11 16 -18 146 -8 133 8 -10 59 -8 368 15 276 21 422 32
550 41 249 17 726 52 965 71 305 24 488 37 538 38 l52 1 0 -60z m-1030 35 c0
-8 -9 -15 -20 -15 -20 0 -26 11 -13 23 12 13 33 7 33 -8z m-210 -15 c0 -5 -7
-10 -15 -10 -8 0 -15 5 -15 10 0 6 7 10 15 10 8 0 15 -4 15 -10z m1170 -20 c0
-19 -27 -30 -77 -30 -28 0 -33 4 -33 24 0 21 6 25 33 28 51 5 77 -3 77 -22z
m-1372 8 c-6 -18 -28 -21 -28 -4 0 9 7 16 16 16 9 0 14 -5 12 -12z m-193 -8
c3 -5 -3 -10 -14 -10 -12 0 -21 5 -21 10 0 6 6 10 14 10 8 0 18 -4 21 -10z
m1355 -15 l0 -25 -35 17 c-19 9 -35 20 -35 25 0 4 16 8 35 8 31 0 35 -3 35
-25z m-1565 -5 c3 -5 -1 -10 -9 -10 -9 0 -16 5 -16 10 0 6 4 10 9 10 6 0 13
-4 16 -10z m1360 -15 c0 -18 -7 -20 -55 -20 -43 0 -55 4 -58 17 -4 19 18 27
73 25 33 -2 40 -6 40 -22z m130 9 c12 -5 14 -9 4 -14 -14 -9 -39 -2 -39 11 0
11 12 11 35 3z m-1690 -14 c-3 -5 -13 -10 -21 -10 -8 0 -14 5 -14 10 0 6 9 10
21 10 11 0 17 -4 14 -10z m1369 -6 c8 -22 10 -21 -56 -29 -58 -7 -58 -7 -58
19 0 25 2 26 54 26 41 0 55 -4 60 -16z m-1584 -9 c0 -8 -4 -15 -9 -15 -13 0
-22 16 -14 24 11 11 23 6 23 -9z m1378 -12 c3 -22 0 -23 -52 -23 -49 0 -56 3
-56 19 0 24 14 30 65 28 33 -2 41 -6 43 -24z m-1608 2 c0 -8 -4 -15 -10 -15
-5 0 -10 7 -10 15 0 8 5 15 10 15 6 0 10 -7 10 -15z m2452 -2 c17 -15 19 -15
38 2 20 18 20 17 20 -183 0 -189 -1 -200 -18 -195 -26 6 -48 -22 -32 -42 18
-22 39 -18 50 8 5 12 9 17 9 10 2 -37 -10 -43 -94 -43 -95 0 -95 -1 -95 105 0
47 6 71 29 112 30 54 30 63 -2 57 -11 -1 -16 0 -13 4 4 3 16 7 28 9 23 4 47
30 48 52 0 9 -7 11 -22 7 -13 -3 -32 -6 -43 -6 -14 0 -24 -10 -32 -30 -6 -16
-8 -30 -4 -32 3 -2 -3 -13 -15 -25 l-20 -22 -30 55 -29 55 -40 -6 c-21 -3 -41
-8 -43 -10 -9 -9 11 -25 31 -25 16 0 18 -3 9 -9 -11 -7 -5 -22 27 -73 23 -36
41 -73 41 -82 0 -10 9 -17 23 -17 21 -2 21 -2 1 -6 -16 -3 -23 -14 -28 -43 -3
-21 -3 -46 0 -55 6 -14 -6 -15 -102 -13 l-109 3 -3 37 c-3 36 -2 37 39 48 45
12 99 58 99 84 0 13 -12 16 -55 16 -47 0 -55 -3 -55 -19 0 -17 -26 -49 -34
-40 -2 2 -6 35 -10 72 -7 67 -6 68 14 57 12 -6 26 -22 32 -36 10 -21 18 -24
60 -24 41 0 48 3 48 20 0 35 -51 81 -107 95 -28 7 -60 12 -70 10 -10 -2 -35
-4 -55 -4 l-38 -1 0 -85 0 -85 28 -1 27 -1 -25 -8 c-22 -7 -21 -8 15 -11 l40
-2 -39 -4 -39 -4 6 -55 c6 -55 1 -69 -22 -55 -9 6 -10 11 -2 15 19 12 12 36
-14 46 -14 5 -25 14 -25 20 0 5 -8 10 -17 11 -15 0 -15 1 2 8 18 8 20 16 17
105 l-3 96 -27 0 c-73 -1 -99 -29 -29 -32 l42 -1 -43 -4 -43 -4 6 -107 c4 -59
9 -111 12 -117 3 -5 -5 1 -16 15 -11 14 -21 31 -21 38 0 7 -14 13 -32 13 -30
2 -30 2 -6 6 l27 4 -35 77 c-45 98 -49 102 -101 95 l-43 -6 0 -43 c0 -29 4
-44 13 -44 9 0 8 -3 -2 -9 -10 -7 -12 -23 -6 -72 4 -35 12 -67 19 -71 8 -6 7
-8 -1 -8 -7 0 -13 -7 -13 -15 0 -10 -10 -15 -28 -15 -26 0 -27 2 -24 45 4 41
2 45 -19 46 -24 2 -24 2 -1 6 26 5 27 13 7 81 l-16 52 -67 2 -67 1 65 6 64 6
-34 28 c-52 44 -104 23 -141 -58 -24 -52 -24 -63 4 -68 19 -4 18 -4 -5 -6 -24
-1 -28 -5 -28 -31 0 -17 5 -30 13 -31 6 0 -3 -5 -20 -10 -25 -7 -33 -15 -33
-33 0 -14 6 -27 13 -29 7 -3 5 -6 -5 -6 -14 -1 -18 7 -18 40 l0 40 -57 -7
c-32 -4 -61 -12 -65 -18 -14 -20 -8 -36 12 -36 11 0 20 -4 20 -10 0 -12 -77
-13 -84 -1 -3 5 3 11 14 14 20 5 29 47 11 47 -23 0 -39 30 -32 61 9 47 34 59
64 31 23 -21 25 -22 61 -7 41 17 43 36 5 46 -17 5 -19 7 -6 8 28 2 15 23 -29
48 -46 27 -72 29 -101 8 -41 -29 -58 -82 -58 -177 l1 -88 -27 0 c-23 0 -30 8
-54 66 -15 36 -34 68 -41 71 -8 3 -11 9 -8 14 2 5 -1 19 -8 31 -12 22 -14 28
-17 47 -1 11 -82 2 -96 -11 -6 -6 -5 -12 5 -18 13 -8 13 -10 -1 -10 -12 0 -19
-21 -30 -92 -12 -74 -18 -92 -33 -94 -16 -2 -17 -1 -2 15 21 24 10 51 -20 51
-29 0 -42 -25 -25 -51 10 -18 7 -19 -39 -19 -53 0 -63 15 -25 35 12 6 21 23
23 43 3 30 2 32 -30 32 -29 0 -35 -4 -43 -32 -12 -38 -31 -47 -40 -19 -4 12
-16 22 -28 22 -22 2 -22 2 1 6 41 8 23 23 -30 25 l-53 2 53 3 c44 3 52 7 52
24 0 25 27 25 35 -1 5 -16 15 -20 46 -20 50 0 52 20 2 21 -32 2 -33 3 -10 6
69 11 -19 63 -105 63 -72 0 -88 -7 -88 -36 0 -19 6 -24 28 -25 l27 -2 -27 -4
c-22 -4 -26 -9 -26 -34 1 -19 6 -29 17 -29 11 0 12 -3 4 -8 -6 -4 -13 -20 -15
-36 -2 -21 -9 -30 -26 -32 -20 -4 -22 0 -22 46 0 69 -29 124 -80 150 -68 35
-150 20 -150 -28 0 -24 1 -24 65 -17 55 6 66 4 71 -10 4 -9 16 -21 28 -25 17
-7 18 -9 4 -9 -10 -1 -18 -9 -18 -18 0 -9 -7 -25 -16 -35 -14 -14 -14 -20 -4
-33 11 -13 8 -15 -19 -15 -29 0 -31 3 -31 34 0 18 -3 48 -6 65 -6 27 -10 31
-40 31 -33 0 -34 -1 -34 -40 0 -37 -2 -40 -19 -30 -27 14 -29 13 -42 -12 -9
-17 -8 -24 5 -34 18 -13 5 -31 -14 -19 -12 8 -14 265 -1 265 5 0 16 -10 25
-22 l16 -23 23 28 c20 24 29 27 84 27 52 0 64 -3 77 -21 17 -25 45 -19 53 11
3 11 12 20 19 20 10 0 15 -15 16 -52 l2 -53 3 51 c4 49 6 52 35 58 49 10 75 7
88 -9 11 -13 15 -12 37 5 14 11 34 20 44 20 16 0 19 -8 21 -47 l2 -48 3 46 4
46 44 1 c32 2 47 -2 55 -15 10 -17 12 -16 26 5 22 30 48 28 62 -5 9 -22 11
-23 8 -5 -3 14 2 26 14 32 28 15 70 12 76 -5 8 -20 27 -19 41 3 16 26 145 31
169 7 15 -15 18 -14 38 4 14 13 42 22 84 27 54 6 65 4 76 -11 10 -14 16 -15
34 -6 12 6 22 16 22 21 0 6 31 10 69 10 59 0 72 -3 84 -21 15 -20 15 -20 36 8
19 23 31 28 86 31 53 4 66 1 71 -12 8 -22 29 -20 45 3 10 14 32 21 81 26 61 6
67 5 73 -14 8 -28 23 -26 51 4 20 21 32 25 84 25 45 0 62 -4 66 -15 8 -21 32
-19 46 5 7 11 23 20 35 20 18 0 23 -6 24 -27 2 -28 2 -28 6 -3 9 45 62 55 93
18 l18 -22 23 27 c21 24 31 27 88 27 46 0 70 -5 83 -17z m-2402 -3 c0 -5 -7
-10 -15 -10 -8 0 -15 5 -15 10 0 6 7 10 15 10 8 0 15 -4 15 -10z m1367 -10
c-1 -13 -8 -20 -22 -20 -11 0 -37 -3 -57 -6 -33 -6 -38 -4 -38 13 0 29 8 33
66 33 47 0 53 -2 51 -20z m-209 1 c6 -1 12 -10 12 -21 0 -18 -7 -20 -59 -20
-54 0 -71 8 -71 35 0 5 50 10 80 8 14 -1 31 -2 38 -2z m-204 -28 c9 -22 -10
-33 -61 -33 -39 0 -43 2 -43 25 0 23 3 25 49 25 36 0 50 -4 55 -17z m-204 -18
c0 -29 -16 -32 -42 -8 -26 23 -22 33 12 33 25 0 30 -4 30 -25z m-304 0 c-11
-8 -22 -12 -25 -9 -6 6 19 24 34 24 6 -1 1 -7 -9 -15z m87 -11 c6 -31 -6 -36
-64 -32 l-44 3 45 27 c56 34 57 34 63 2z m34 4 c-3 -8 -6 -5 -6 6 -1 11 2 17
5 13 3 -3 4 -12 1 -19z m-219 -20 c2 -16 2 -28 0 -29 -2 0 -31 -3 -65 -6 l-63
-5 0 30 c0 35 12 41 80 39 41 -2 45 -4 48 -29z m-220 2 c6 0 12 -11 12 -24 0
-22 -5 -24 -55 -28 -54 -3 -55 -2 -55 24 0 28 24 40 65 32 11 -2 26 -4 33 -4z
m1850 -67 c-15 -2 -42 -2 -60 0 -18 2 -6 4 27 4 33 0 48 -2 33 -4z m-628 -152
c6 -16 12 -51 13 -77 2 -48 1 -49 -28 -49 l-30 0 0 60 c1 93 21 124 45 66z
m-600 -47 c13 -39 4 -54 -31 -54 -14 0 -15 7 -8 43 4 23 8 46 9 50 1 18 19 -6
30 -39z m-770 -45 c0 -6 -4 -7 -10 -4 -5 3 -10 11 -10 16 0 6 5 7 10 4 6 -3
10 -11 10 -16z m195 1 c3 -5 -1 -10 -9 -10 -9 0 -16 5 -16 10 0 6 4 10 9 10 6
0 13 -4 16 -10z m215 6 c0 -11 -19 -15 -25 -6 -3 5 1 10 9 10 9 0 16 -2 16 -4z
m210 -6 c0 -5 -7 -10 -15 -10 -8 0 -15 5 -15 10 0 6 7 10 15 10 8 0 15 -4 15
-10z m200 -6 c0 -9 -5 -14 -12 -12 -18 6 -21 28 -4 28 9 0 16 -7 16 -16z m200
6 c0 -5 -4 -10 -10 -10 -5 0 -10 5 -10 10 0 6 5 10 10 10 6 0 10 -4 10 -10z
m210 2 c0 -13 -12 -22 -22 -16 -10 6 -1 24 13 24 5 0 9 -4 9 -8z m218 -4 c-3
-7 -11 -13 -18 -13 -7 0 -15 6 -17 13 -3 7 4 12 17 12 13 0 20 -5 18 -12z
m192 2 c0 -5 -4 -10 -10 -10 -5 0 -10 5 -10 10 0 6 5 10 10 10 6 0 10 -4 10
-10z m615 1 c7 -12 -12 -24 -25 -16 -11 7 -4 25 10 25 5 0 11 -4 15 -9z
m-2225 -19 c0 -10 -7 -19 -15 -19 -18 0 -19 4 -2 22 16 19 17 18 17 -3z m1820
8 c0 -5 -7 -10 -15 -10 -8 0 -15 5 -15 10 0 6 7 10 15 10 8 0 15 -4 15 -10z
m610 0 c0 -5 -4 -10 -10 -10 -5 0 -10 5 -10 10 0 6 5 10 10 10 6 0 10 -4 10
-10z m-185 -19 c-3 -6 -11 -11 -17 -11 -6 0 -6 6 2 15 14 17 26 13 15 -4z
m-1862 2 c-7 -2 -19 -2 -25 0 -7 3 -2 5 12 5 14 0 19 -2 13 -5z m1252 -3 c3
-6 -4 -10 -17 -10 -18 0 -20 2 -8 10 19 12 18 12 25 0z m-1627 -37 c-34 -14
-38 -19 -38 -52 0 -37 -14 -70 -22 -55 -15 27 -29 86 -23 104 5 17 15 20 63
19 l57 0 -37 -16z m175 4 c-2 -4 -3 -32 -3 -62 0 -41 -4 -55 -14 -55 -16 0
-21 13 -32 72 -3 21 -9 37 -13 36 -27 -3 -29 6 -1 11 40 8 66 7 63 -2z m219
-5 c-6 -2 -12 -13 -12 -25 0 -36 -20 -98 -30 -92 -5 3 -12 28 -16 55 -4 31
-12 51 -23 56 -12 5 -7 9 19 14 35 6 85 0 62 -8z m213 -6 c-26 -11 -31 -20
-33 -52 -4 -57 -19 -63 -32 -13 -7 24 -16 52 -21 62 -8 15 -3 17 53 17 61 -1
62 -1 33 -14z m198 -1 c-22 -9 -31 -19 -27 -29 7 -18 -14 -86 -26 -86 -12 0
-20 27 -20 69 0 29 -5 40 -22 49 -19 9 -9 11 52 11 73 0 74 0 43 -14z m1395 7
l242 -3 0 -29 c0 -32 -19 -80 -31 -80 -12 0 -22 47 -14 61 12 19 -17 29 -87
29 -66 0 -68 -1 -68 -25 0 -28 -19 -75 -31 -75 -16 0 -30 42 -24 70 6 27 4 29
-31 36 -20 4 -57 3 -82 -2 -39 -8 -45 -13 -48 -36 -4 -40 -14 -68 -24 -68 -17
0 -32 42 -26 70 6 31 -10 40 -74 40 -64 0 -77 -8 -84 -50 -3 -22 -11 -42 -17
-46 -16 -10 -30 17 -26 49 5 38 -19 49 -93 45 -50 -2 -60 -6 -60 -21 0 -10 -7
-34 -16 -55 l-16 -37 -14 39 c-8 21 -12 42 -9 46 14 22 -51 41 -112 33 -36 -5
-43 -9 -43 -28 0 -29 -20 -85 -30 -85 -5 0 -12 20 -15 43 -10 64 -15 69 -76
68 -88 -1 -87 0 -94 -47 -3 -23 -12 -48 -20 -54 -11 -9 -15 -4 -20 27 -4 21
-8 44 -11 51 -6 19 -54 34 -88 27 -61 -12 -66 -16 -66 -43 0 -41 -11 -72 -25
-72 -15 0 -25 31 -25 77 0 25 -5 33 -27 42 -27 9 616 11 1285 3z m-1928 -27
c0 -8 10 -16 23 -16 l22 -2 -22 -4 c-32 -6 -31 -43 1 -43 17 0 26 -7 30 -25 4
-14 12 -25 19 -25 30 0 49 27 56 80 6 53 7 54 21 33 10 -15 26 -23 45 -24 23
-1 25 -3 8 -6 -13 -2 -23 -8 -23 -12 0 -15 25 -31 47 -31 13 0 26 -7 29 -15 4
-8 14 -15 24 -15 10 0 23 7 30 15 7 8 25 15 40 15 19 0 29 6 33 20 4 17 0 20
-26 21 l-32 2 30 4 c16 3 34 11 40 19 16 23 42 7 42 -26 0 -41 22 -80 45 -80
13 0 26 14 38 43 18 38 20 40 26 19 6 -19 12 -23 41 -20 39 3 45 20 11 30 -17
4 -18 6 -5 7 14 1 17 6 12 21 -7 21 -3 23 32 14 18 -5 22 -11 17 -30 -10 -37
14 -84 42 -84 13 0 28 9 34 20 6 11 19 20 30 20 11 0 35 13 53 30 l34 30 7
-39 c11 -71 53 -79 86 -15 13 26 19 29 50 23 34 -6 35 -6 5 -8 l-30 -2 24 -19
c13 -11 36 -20 52 -20 16 0 38 -6 50 -12 18 -11 23 -10 45 15 14 16 24 41 24
58 0 24 4 29 25 29 16 0 25 -6 25 -15 0 -9 10 -15 23 -16 17 -1 18 -2 4 -6
-26 -7 -15 -28 14 -27 14 1 31 -9 42 -23 l19 -24 24 22 c13 12 27 37 30 56 8
43 38 45 59 3 8 -16 26 -32 39 -36 14 -3 27 -12 30 -20 3 -8 12 -14 20 -14 19
0 56 47 57 74 1 14 4 10 10 -13 10 -33 11 -33 54 -26 41 6 46 4 57 -19 6 -14
16 -26 22 -26 29 1 66 52 66 89 0 18 6 21 44 21 62 0 74 -6 68 -35 -5 -28 21
-75 42 -75 20 0 80 61 68 69 -24 15 6 32 49 29 35 -2 44 -7 47 -23 10 -71 29
-88 60 -55 17 19 18 19 14 -16 l-4 -35 -64 2 -64 2 -2 31 -1 31 -4 -34 -5 -34
-426 6 c-235 4 -599 7 -809 7 l-383 0 -2 43 -1 42 -4 -38 -4 -38 -277 2 c-321
2 -450 8 -432 19 7 4 18 27 24 51 10 42 12 44 41 38 l30 -7 -30 -2 c-21 -2
-13 -5 25 -10 l55 -7 -53 -1 c-36 -1 -51 -6 -46 -13 4 -7 25 -9 55 -7 45 5 50
3 55 -18 5 -18 13 -24 35 -24 35 0 54 36 45 88 -5 32 -4 32 35 32 28 0 39 -4
39 -15z m240 -10 c0 -8 -2 -15 -4 -15 -2 0 -6 7 -10 15 -3 8 -1 15 4 15 6 0
10 -7 10 -15z m825 -140 c369 -3 765 -8 882 -11 l212 -6 -15 -29 c-13 -26 -20
-29 -67 -31 l-52 -1 47 -6 48 -6 -36 -60 -36 -60 -101 6 c-56 4 -208 12 -337
19 -262 13 -320 25 -320 66 0 19 -5 24 -25 24 -13 0 -28 -7 -33 -15 -7 -14
-15 -14 -73 1 -75 19 -81 19 -219 34 -58 6 -175 12 -260 12 -85 1 -163 5 -173
10 -13 7 -24 5 -36 -6 -10 -9 -32 -18 -49 -21 -18 -3 -46 -7 -63 -10 -24 -4
-30 -2 -26 9 7 17 -11 36 -34 36 -20 0 -30 -22 -19 -40 14 -23 1 -30 -58 -30
-82 0 -104 8 -90 30 16 25 3 52 -24 48 -28 -4 -34 -30 -12 -52 15 -15 10 -16
-75 -15 -84 1 -107 8 -81 24 16 10 11 43 -7 49 -28 8 -233 3 -233 -6 0 -16
-30 -8 -40 11 -24 45 -30 44 363 38 204 -4 673 -9 1042 -12z m-1325 -51 c0 -9
-5 -14 -12 -12 -18 6 -21 28 -4 28 9 0 16 -7 16 -16z m150 -2 c0 -10 6 -24 13
-31 10 -10 -10 -12 -103 -9 -104 3 -115 5 -118 22 -4 19 -3 19 22 3 24 -16 27
-16 45 2 18 18 42 24 119 29 15 1 22 -4 22 -16z m40 -7 c0 -8 -4 -15 -10 -15
-5 0 -10 7 -10 15 0 8 5 15 10 15 6 0 10 -7 10 -15z m190 -11 c0 -8 -4 -12
-10 -9 -5 3 -10 13 -10 21 0 8 5 12 10 9 6 -3 10 -13 10 -21z m200 -4 c0 -5
-7 -10 -15 -10 -8 0 -15 5 -15 10 0 6 7 10 15 10 8 0 15 -4 15 -10z m185 -13
c0 -26 -20 -25 -23 2 -3 16 1 22 10 19 7 -3 13 -12 13 -21z m193 -8 c-2 -6 -8
-10 -13 -10 -5 0 -11 4 -13 10 -2 6 4 11 13 11 9 0 15 -5 13 -11z m187 -7 c0
-18 -20 -15 -23 4 -3 10 1 15 10 12 7 -3 13 -10 13 -16z m119 3 c13 -3 26 -14
29 -25 6 -25 41 -26 59 -2 12 17 18 16 123 -15 77 -23 96 -32 65 -28 -134 13
-178 16 -258 16 -48 1 -79 4 -69 8 17 6 17 8 -2 30 -27 31 -26 32 4 26 14 -3
36 -7 49 -10z m67 -18 c-13 -13 -26 -3 -16 12 3 6 11 8 17 5 6 -4 6 -10 -1
-17z m-1141 6 c69 -6 77 -9 45 -13 -39 -5 -40 -6 -45 -52 -9 -78 -29 -80 -37
-4 -4 35 -10 47 -27 52 -26 9 -101 8 -115 -1 -6 -3 -11 -29 -11 -56 0 -42 -3
-50 -17 -47 -21 4 -33 48 -26 94 l6 34 71 0 c39 0 109 -3 156 -7z m1336 -20
c-10 -10 -19 5 -10 18 6 11 8 11 12 0 2 -7 1 -15 -2 -18z m-1153 7 c33 -1 38
-3 25 -11 -13 -7 -18 -23 -18 -52 0 -44 -14 -77 -26 -64 -4 4 -9 31 -12 61 -3
42 -9 56 -26 65 -14 8 -15 10 -3 6 10 -3 37 -5 60 -5z m205 -11 c34 0 35 -1
15 -11 -19 -9 -23 -19 -23 -53 0 -46 -5 -56 -26 -48 -9 3 -14 21 -14 52 0 26
-6 53 -12 60 -11 11 -10 13 5 7 10 -3 35 -6 55 -7z m265 4 c-7 -2 -19 -2 -25
0 -7 3 -2 5 12 5 14 0 19 -2 13 -5z m-742 -13 c25 0 29 -4 29 -26 0 -25 -2
-26 -37 -20 -21 3 -46 6 -55 6 -11 0 -18 8 -18 19 0 21 17 32 38 25 8 -2 27
-4 43 -4z m218 -9 c21 -13 -27 -41 -71 -41 -34 0 -38 3 -38 25 0 23 3 25 48
25 26 0 53 -4 61 -9z m169 3 c15 -4 22 -14 22 -30 0 -30 -11 -36 -59 -28 -34
5 -41 11 -41 29 0 12 3 25 7 28 8 9 41 9 71 1z m310 -1 c-26 -4 -28 -8 -28
-53 0 -50 -15 -74 -31 -49 -5 8 -9 31 -9 51 0 25 -6 40 -17 47 -14 8 -2 10 47
9 36 0 53 -3 38 -5z m165 -4 c47 -1 49 -2 25 -11 -24 -8 -28 -15 -28 -46 0
-79 -38 -81 -43 -3 -2 29 -9 48 -22 58 -18 14 -18 15 -2 9 10 -3 42 -6 70 -7z
m-329 -25 c10 -26 7 -34 -13 -34 -12 0 -20 9 -23 25 -4 19 -1 25 12 25 10 0
21 -7 24 -16z m701 6 c39 -4 58 -8 43 -8 -25 -2 -28 -6 -28 -40 0 -21 -7 -47
-15 -58 -13 -16 -16 -17 -25 -4 -6 8 -9 31 -8 52 3 34 1 37 -34 48 -21 6 -54
8 -73 4 -29 -5 -35 -11 -35 -33 -1 -14 -7 -39 -14 -56 l-14 -30 -11 28 c-6 16
-11 41 -11 56 0 15 -5 32 -12 39 -14 14 114 15 237 2z m440 -22 c155 -8 238
-15 205 -18 l-55 -5 -5 -52 c-3 -28 -8 -55 -12 -58 -15 -16 -28 9 -28 54 0 42
-3 49 -25 59 -14 7 -48 12 -75 12 l-50 0 0 -36 c0 -40 -16 -77 -31 -69 -5 4
-9 26 -9 49 0 39 -3 45 -30 56 -42 17 -120 5 -120 -19 0 -10 -5 -33 -11 -50
-14 -40 -29 -24 -29 30 0 26 -6 41 -22 53 l-23 16 30 -4 c17 -3 147 -11 290
-18z m-295 -38 c0 -29 -2 -30 -42 -30 -51 0 -63 7 -65 38 -2 20 2 22 53 22 53
0 54 0 54 -30z m164 14 c9 -3 16 -17 16 -30 0 -22 -4 -24 -50 -24 -46 0 -50 2
-50 23 0 13 3 27 7 30 8 9 56 9 77 1z m665 -8 c24 -15 4 -106 -23 -106 -9 0
-17 17 -22 47 -8 42 -12 48 -43 56 -47 12 -101 1 -101 -21 0 -9 -5 -35 -12
-57 l-11 -40 -14 34 c-8 19 -12 44 -9 56 4 16 0 25 -17 34 -17 9 5 10 109 7
73 -2 137 -7 143 -10z m-452 -9 c2 -3 3 -12 1 -20 -2 -13 -11 -11 -48 9 l-45
25 43 -5 c24 -2 46 -7 49 -9z m195 -2 c3 -3 3 -17 0 -30 -4 -23 -9 -25 -53
-25 -36 0 -49 4 -49 14 0 8 -3 21 -6 30 -5 13 3 16 48 16 30 0 57 -2 60 -5z
m169 -9 c21 -5 27 -11 25 -31 -1 -25 -3 -26 -56 -23 -52 3 -55 4 -51 28 4 28
19 41 41 36 8 -2 27 -7 41 -10z m-421 -16 c24 -19 24 -20 3 -20 -33 0 -52 10
-46 26 7 18 13 18 43 -6z m-1290 -370 c85 -6 166 -13 180 -15 14 -2 50 -6 80
-10 67 -7 93 -20 70 -35 -8 -5 -26 -10 -40 -10 -17 0 -31 -9 -42 -27 -10 -16
-18 -23 -18 -17 0 18 -47 4 -71 -22 -15 -16 -34 -24 -54 -24 -19 0 -39 -8 -49
-19 -11 -12 -28 -18 -49 -16 -18 1 -38 -3 -46 -9 -10 -8 -18 -4 -35 16 -11 14
-50 60 -86 103 -90 106 -90 106 -38 100 24 -3 113 -10 198 -15z m484 -67 c6
-44 -2 -62 -26 -63 -10 0 -11 94 -1 103 14 15 21 5 27 -40z m-90 -36 c1 -75
-18 -69 -22 7 -2 43 0 57 9 54 8 -3 13 -25 13 -61z m39 16 c-7 -68 -23 -78
-23 -16 0 32 5 53 13 56 6 3 13 6 14 6 1 1 -1 -20 -4 -46z m379 -18 c-5 -17
-16 -32 -26 -33 -17 -4 -17 -2 -2 19 9 13 16 32 16 43 0 13 3 17 10 10 5 -5 6
-22 2 -39z m-460 -6 c3 -30 -1 -43 -12 -49 -13 -7 -15 -3 -12 28 7 73 18 82
24 21z m-142 -51 c0 -64 -22 -101 -36 -64 -7 19 14 96 26 96 6 0 10 -15 10
-32z m34 -5 c-3 -21 -11 -42 -17 -48 -6 -7 -8 -2 -3 15 3 14 6 35 6 48 0 12 5
22 10 22 7 0 8 -14 4 -37z m776 -28 c0 -30 -4 -55 -10 -55 -11 0 -14 93 -3
103 12 12 13 8 13 -48z m-864 -20 c-3 -12 -13 -25 -21 -29 -13 -5 -15 0 -9 32
7 40 27 62 32 36 2 -9 1 -26 -2 -39z m-42 -12 c1 -51 0 -53 -25 -53 -26 0 -26
1 -18 43 4 23 8 48 9 55 0 8 7 12 16 10 12 -2 16 -16 18 -55z m945 -11 c-1
-44 -3 -51 -9 -32 -12 37 -12 102 0 95 6 -3 10 -32 9 -63z m-1002 6 c-5 -24
-16 -52 -24 -63 -12 -17 -12 -14 -6 30 5 39 22 71 39 75 1 0 -3 -19 -9 -42z
m506 33 c22 -9 47 -33 142 -136 11 -12 65 -67 119 -123 87 -88 97 -102 84
-115 -12 -12 -106 -76 -179 -122 -9 -5 -28 -19 -43 -29 l-28 -19 -70 37 c-39
20 -120 74 -182 118 -114 83 -299 229 -294 233 2 1 57 26 123 56 66 30 145 66
175 81 57 28 111 35 153 19z m537 -46 c0 -25 -4 -45 -10 -45 -5 0 -10 20 -10
45 0 25 5 45 10 45 6 0 10 -20 10 -45z m-1088 -20 c-4 -56 -7 -61 -30 -47 -19
12 -4 102 17 102 13 0 15 -10 13 -55z m1188 -32 c0 -40 -4 -53 -15 -53 -11 0
-15 13 -15 53 0 41 4 54 15 54 11 0 15 -13 15 -54z m-1277 30 c-1 -6 -3 -29
-4 -52 -2 -33 -7 -41 -22 -41 -17 0 -19 5 -12 48 4 26 9 51 12 55 7 11 29 2
26 -10z m-51 -35 c-2 -24 -8 -47 -13 -52 -5 -6 -9 -18 -9 -28 0 -10 -4 -18
-10 -18 -13 0 -13 8 6 66 9 27 17 55 20 62 7 24 9 12 6 -30z m1378 -40 c0 -50
0 -50 -18 -28 -22 27 -19 108 4 89 9 -7 14 -31 14 -61z"/>
<path d="M1320 2655 c-58 -30 -101 -54 -96 -54 7 -1 206 96 215 105 15 14 -29
-4 -119 -51z"/>
<path d="M971 2412 c-12 -23 -5 -32 26 -32 20 0 24 5 21 22 -4 29 -34 35 -47
10z m29 -12 c0 -5 -4 -10 -10 -10 -5 0 -10 5 -10 10 0 6 5 10 10 10 6 0 10 -4
10 -10z"/>
<path d="M764 2365 c-4 -9 -2 -21 4 -27 16 -16 47 -5 47 17 0 26 -42 34 -51
10z m36 -15 c0 -5 -4 -10 -9 -10 -6 0 -13 5 -16 10 -3 6 1 10 9 10 9 0 16 -4
16 -10z"/>
<path d="M2748 2563 c7 -3 16 -2 19 1 4 3 -2 6 -13 5 -11 0 -14 -3 -6 -6z"/>
<path d="M2605 2530 c-55 -16 -93 -29 -85 -29 17 -1 201 47 209 54 8 9 -24 2
-124 -25z"/>
<path d="M2372 2473 c-57 -14 -102 -27 -99 -29 5 -5 227 46 227 52 0 7 -21 3
-128 -23z"/>
<path d="M2205 2430 c-25 -11 1 -11 35 0 20 6 21 8 5 8 -11 0 -29 -3 -40 -8z"/>
<path d="M1165 2180 c-13 -5 -14 -9 -5 -9 8 0 24 4 35 9 13 5 14 9 5 9 -8 0
-24 -4 -35 -9z"/>
<path d="M1095 2155 c-25 -12 -26 -14 -5 -9 28 7 60 23 45 23 -5 0 -23 -6 -40
-14z"/>
<path d="M2781 2074 c0 -11 3 -14 6 -6 3 7 2 16 -1 19 -3 4 -6 -2 -5 -13z"/>
<path d="M1493 1795 c0 -22 2 -30 4 -17 2 12 2 30 0 40 -3 9 -5 -1 -4 -23z"/>
<path d="M2637 1723 c-11 -10 -8 -51 4 -58 12 -8 49 22 49 40 0 19 -39 32 -53
18z m27 -34 c-3 -5 -10 -7 -15 -3 -5 3 -7 10 -3 15 3 5 10 7 15 3 5 -3 7 -10
3 -15z"/>
<path d="M1020 1440 c-123 -6 -122 -6 50 -7 96 0 168 1 160 3 -37 8 -94 9
-210 4z"/>
<path d="M2330 1400 c44 -8 217 -14 209 -6 -2 2 -60 6 -129 9 -82 4 -110 3
-80 -3z"/>
<path d="M2628 1383 c46 -2 118 -2 160 0 42 1 5 3 -83 3 -88 0 -123 -2 -77 -3z"/>
<path d="M2360 1335 c-16 -19 -6 -45 19 -45 23 0 35 28 20 46 -15 18 -24 18
-39 -1z m30 -15 c0 -5 -4 -10 -10 -10 -5 0 -10 5 -10 10 0 6 5 10 10 10 6 0
10 -4 10 -10z"/>
<path d="M2547 1321 c-6 -24 16 -46 39 -37 23 9 14 50 -12 54 -15 2 -23 -3
-27 -17z m33 -11 c0 -5 -4 -10 -10 -10 -5 0 -10 5 -10 10 0 6 5 10 10 10 6 0
10 -4 10 -10z"/>
<path d="M2740 1315 c-16 -20 -6 -45 19 -45 25 0 34 14 26 40 -8 24 -28 26
-45 5z m30 -14 c0 -6 -4 -13 -10 -16 -5 -3 -10 1 -10 9 0 9 5 16 10 16 6 0 10
-4 10 -9z"/>
<path d="M2934 1305 c-8 -19 3 -35 26 -35 19 0 34 25 24 41 -8 14 -44 10 -50
-6z m30 -16 c-3 -5 -10 -7 -15 -3 -5 3 -7 10 -3 15 3 5 10 7 15 3 5 -3 7 -10
3 -15z"/>
<path d="M2023 3152 c-10 -6 -10 -12 1 -28 11 -15 17 -16 27 -7 6 6 9 19 6 27
-7 18 -16 20 -34 8z m27 -16 c0 -3 -4 -8 -10 -11 -5 -3 -10 -1 -10 4 0 6 5 11
10 11 6 0 10 -2 10 -4z"/>
<path d="M850 1170 c0 -6 -11 -15 -25 -20 -29 -11 -33 -35 -7 -49 15 -9 15
-10 -5 -11 -46 0 -58 -151 -13 -163 25 -6 36 8 45 56 7 36 10 39 36 35 16 -3
30 -1 31 4 5 14 38 -2 38 -18 0 -16 -36 -19 -45 -4 -3 6 -15 10 -25 10 -16 0
-19 -7 -18 -35 l1 -35 53 0 c42 0 55 -4 64 -19 16 -31 48 -15 60 30 6 22 8 44
5 49 -8 13 39 24 70 16 25 -6 34 -29 15 -41 -5 -3 -10 1 -10 9 0 11 -9 16 -26
16 -22 0 -25 -3 -20 -22 3 -13 6 -26 6 -30 0 -5 7 -8 16 -8 9 0 12 -5 8 -11
-5 -8 3 -10 24 -7 24 3 33 0 41 -18 20 -45 71 3 71 67 0 25 46 26 55 2 11 -32
73 -95 90 -91 27 5 82 116 87 176 5 49 4 52 -18 52 -13 0 -24 -4 -24 -10 0 -5
-11 -10 -24 -10 -30 0 -42 -16 -26 -35 10 -12 9 -15 -8 -15 -11 0 -25 7 -32
15 -14 17 -47 20 -52 4 -2 -7 -17 -8 -40 -4 -25 5 -35 11 -31 21 8 21 -20 74
-39 74 -20 0 -25 -7 -32 -44 -7 -39 -9 -39 -61 -32 -38 6 -45 10 -40 25 3 10
-1 24 -10 31 -13 11 -19 10 -35 -5 -10 -9 -16 -23 -13 -31 3 -9 -2 -14 -13
-14 -34 0 -64 12 -64 26 0 7 -12 15 -27 17 l-28 4 28 2 c23 1 28 5 25 24 -2
16 -11 23 -30 25 -16 2 -28 -2 -28 -8z m49 -116 c2 -2 -7 -4 -21 -4 -31 0 -43
-14 -53 -58 -10 -46 -25 -29 -25 28 l0 50 48 -7 c26 -3 49 -7 51 -9z m180 -11
c3 -2 -10 -9 -27 -15 -24 -9 -32 -18 -32 -38 0 -34 -11 -70 -21 -70 -4 0 -11
21 -14 48 -8 60 -16 75 -46 83 -13 4 12 5 56 2 44 -3 82 -7 84 -10z m216 -18
c61 -8 111 -15 113 -15 9 -1 -1 -57 -15 -83 l-17 -32 -10 52 c-10 57 -16 62
-83 65 -51 2 -69 -12 -77 -57 -10 -52 -26 -42 -26 15 0 47 -1 50 -32 59 l-33
9 35 1 c19 0 85 -6 145 -14z m-347 -72 c-10 -2 -26 -2 -35 0 -10 3 -2 5 17 5
19 0 27 -2 18 -5z"/>
<path d="M1290 1101 c0 -12 9 -20 25 -23 21 -4 25 -1 25 18 0 19 -5 24 -25 24
-18 0 -25 -5 -25 -19z"/>
<path d="M1503 1094 c-3 -9 0 -20 8 -25 9 -6 10 -9 2 -9 -8 0 -12 -24 -12 -77
0 -49 4 -80 12 -85 7 -4 44 -8 83 -8 57 0 74 4 88 19 26 29 17 71 -21 97 -28
19 -31 24 -18 34 20 16 19 56 -1 64 -9 3 -42 6 -75 6 -45 0 -61 -4 -66 -16z
m87 -28 c0 -13 -26 -46 -36 -46 -2 0 -4 14 -4 30 0 23 4 30 20 30 11 0 20 -6
20 -14z m43 -100 c8 -21 -13 -36 -50 -36 -29 0 -33 3 -33 25 0 22 4 25 39 25
24 0 41 -5 44 -14z"/>
<path d="M1746 1064 c-9 -23 -8 -24 24 -24 23 0 30 4 30 20 0 25 -45 28 -54 4z"/>
<path d="M1990 1066 c0 -8 8 -17 18 -19 16 -4 16 -5 0 -6 -15 -1 -18 -11 -18
-53 0 -61 -16 -97 -26 -60 -4 13 -14 22 -25 22 -24 0 -25 -27 -1 -33 16 -4 16
-5 -1 -6 -14 -1 -16 -5 -7 -20 13 -25 44 -35 69 -22 27 15 41 63 41 142 0 67
-1 69 -25 69 -15 0 -25 -6 -25 -14z"/>
<path d="M2111 992 c-69 -158 -64 -142 -38 -142 18 0 27 8 35 33 l10 32 1 -31
c1 -40 20 -94 33 -94 6 0 7 8 3 18 -10 26 -18 109 -12 124 4 12 26 12 133 2
71 -7 197 -18 279 -24 200 -14 195 -13 195 -56 0 -19 -5 -45 -12 -57 -11 -21
-11 -21 -19 -2 -4 11 -8 32 -8 47 -1 20 -8 29 -32 37 -73 25 -119 8 -119 -46
0 -10 -5 -25 -10 -33 -9 -13 -11 -13 -20 0 -5 8 -10 27 -10 41 0 49 -60 77
-122 56 -19 -6 -28 -16 -28 -30 0 -31 -11 -67 -20 -67 -4 0 -10 22 -14 50 -8
60 -26 72 -99 68 l-52 -3 -7 -55 c-8 -64 -3 -74 14 -34 10 22 19 28 36 26 12
-2 22 1 22 7 0 6 -10 12 -22 12 -17 1 -19 2 -5 6 9 2 17 11 17 19 0 9 7 14 18
12 12 -2 18 -14 20 -41 3 -29 7 -37 23 -37 10 0 19 -6 19 -14 0 -7 6 -19 14
-25 22 -18 56 20 56 62 l1 32 22 -27 c13 -16 33 -28 45 -28 32 0 27 18 -5 22
-25 3 -23 4 10 9 37 5 37 5 37 -31 0 -20 6 -44 13 -54 19 -25 48 -6 73 48 20
42 38 52 80 42 18 -5 24 -13 24 -34 0 -70 28 -93 65 -52 22 25 27 121 7 128
-10 3 -10 7 -2 17 16 19 3 55 -20 55 -9 0 -20 9 -23 19 -3 12 -16 21 -33 24
l-29 4 28 2 c38 2 37 31 -2 31 -30 0 -49 -19 -81 -83 -13 -27 -14 -27 -22 -8
-9 24 -40 28 -58 6 -10 -12 -10 -18 0 -30 10 -13 9 -15 -10 -15 -21 0 -21 3
-15 49 6 46 5 50 -17 54 -23 4 -23 4 0 6 30 2 29 31 -2 31 -25 0 -36 -28 -36
-96 0 -55 -21 -43 -63 36 -26 50 -47 66 -72 56 -13 -5 -16 -15 -13 -41 2 -19
0 -35 -4 -35 -4 0 -8 -9 -8 -20 0 -15 -7 -20 -29 -20 -24 0 -29 5 -34 33 -10
60 -25 87 -49 87 -19 0 -29 -14 -57 -78z m69 -3 c0 -6 -4 -7 -10 -4 -5 3 -10
11 -10 16 0 6 5 7 10 4 6 -3 10 -11 10 -16z m190 -9 c0 -5 -7 -10 -15 -10 -8
0 -15 5 -15 10 0 6 7 10 15 10 8 0 15 -4 15 -10z m310 -10 c0 -11 -7 -20 -15
-20 -17 0 -18 2 -9 24 9 23 24 20 24 -4z m-123 -16 c-9 -9 -28 6 -21 18 4 6
10 6 17 -1 6 -6 8 -13 4 -17z m-390 10 c-3 -3 -12 -4 -19 -1 -8 3 -5 6 6 6 11
1 17 -2 13 -5z m577 -25 c-3 -5 -10 -7 -15 -3 -5 3 -7 10 -3 15 3 5 10 7 15 3
5 -3 7 -10 3 -15z"/>
<path d="M2871 1027 c-13 -21 -12 -21 5 -5 10 10 16 20 13 22 -3 3 -11 -5 -18
-17z"/>
<path d="M1740 1010 c0 -11 6 -20 13 -20 9 0 9 -2 0 -8 -7 -4 -16 -22 -19 -39
-6 -29 -4 -32 22 -36 l29 -4 -27 -2 c-57 -3 -26 -19 42 -23 75 -3 98 8 28 15
l-43 4 48 1 c60 2 62 22 1 22 l-46 0 4 55 c3 54 3 55 -24 55 -21 0 -28 -5 -28
-20z"/>
<path d="M1375 839 c22 -4 60 -8 85 -7 l45 1 -45 8 c-25 4 -63 7 -85 7 l-40 0
40 -9z"/>
</g>
</svg>
