<svg viewBox="0 0 254.15625 109.59375" xmlns="http://www.w3.org/2000/svg"><path d="m20 20v34.09375c11.43679 0 20.71875 9.28196 20.71875 20.71875 0 11.43678-9.28196 20.6875-20.71875 20.6875v34.09375h146.6875v-9.5h3v9.5h104.46875v-34.09375c-.0105.00002-.0208 0-.0312 0-11.43678 0-20.71875-9.25072-20.71875-20.6875 0-11.43679 9.28197-20.71875 20.71875-20.71875.0105 0 .0208-.00002.0312 0v-34.09375h-104.46875v9.09375h-3v-9.09375zm146.6875 16.09375h3v14h-3zm41.44141 12.833984c2.79067 0 5.02343 1.92774 5.02343 4.3125s-2.23276 4.363282-5.02343 4.363282c-2.73994 0-4.97266-1.978522-4.97266-4.363282s2.23272-4.3125 4.97266-4.3125zm-13.22852 4.210938v8.017578h3.95899v6.291016h-3.95899v12.279296c0 2.02959.71015 2.791016 2.13086 2.791016.71035 0 1.06703-.10181 1.82813-.40625v5.935547c-.71036.40591-2.38661.964844-4.61915.964844-6.13949 0-8.98046-3.753876-8.98046-8.472657v-13.091796h-2.8418v-6.291016h2.8418v-5.582031zm-28.21289 3.955078h3v14h-3zm-74.568359 3.554688c8.473509 0 14.207029 4.515688 14.207029 14.105468 0 8.62573-5.02336 14.105469-12.07617 14.105469-1.72514 0-3.147072-.20329-3.857422-.40625v10.960937h-9.640625v-36.685546c2.58772-1.21775 6.090268-2.080081 11.367188-2.080078zm49.863279 0c8.57499 0 12.63436 5.935363 12.12696 15.220703l-15.93165 2.234375c.60888 2.94289 2.18061 4.414062 5.68165 4.414062 3.24732 0 5.78445-.711556 7.30664-1.472656l2.13086 5.886719c-2.38476 1.16701-5.58034 2.080078-10.6543 2.080078-8.93017 0-13.64844-6.037993-13.64844-14.257813 0-8.21981 4.41329-14.105468 12.98828-14.105468zm-17.92187.0059c.8928.01358 1.82795.04496 2.80468.0957l-1.67578 6.697266c-1.77589-.86257-3.50104-.913692-4.76953-.457032v21.513672h-9.64062v-25.77539c2.79702-1.376314 7.03166-2.16926 13.28125-2.074219zm79.24804.501953h9.64063v27.347656h-9.64063zm13.23438 0h10.04687l3.29883 6.849609h.10156l3.60157-6.849609h8.98047l-7.96485 12.632812 8.72656 14.714844h-10.65429l-3.50196-7.560547h-.10156l-3.65234 7.560547h-9.74219l8.57422-14.105468zm-74.9668 5.023438c-2.84142 0-4.41381 2.585948-4.10937 7.355468l7.76367-1.166015c0-4.16064-1.2188-6.189454-3.6543-6.189453zm-49.507811.09961c-.71035 0-1.219131.101686-1.675781.253906v16.439453c.35517.15221.863828.253906 1.523438.253906 3.4503 0 4.871093-2.840514 4.871093-8.421874 0-5.733571-1.21772-8.525391-4.71875-8.525391zm74.619141 11.814453h3v14h-3zm0 21h3v13.999998h-3z" fill="#3b1c4a" transform="translate(-20 -20)"/></svg>