<svg viewBox="0 0 450.98 234.08" xmlns="http://www.w3.org/2000/svg"><g fill="#00a4e4"><path d="m216.06 160.56 6.36-19.43c4.12 3.57 13.76 6.48 21.07 6.48 8.56 0 13.64-3.59 13.64-10.07 0-4.54-1.51-7.44-8.38-10.2l-11.47-4.68c-10.86-4.42-19-11.87-19-26.6 0-17.51 15.85-27.56 36.79-27.56a71.85 71.85 0 0 1 24.13 4.55l-5.2 18.45c-3-1.91-11.6-4.68-17.91-4.68-8.43 0-13.51 3.73-13.51 9.24s3.31 7.72 7.15 9.11l12.67 4.67c11.87 4.42 19 12.13 19 26.75 0 18.45-13.65 29.49-37.91 29.49-10.47 0-22.18-2.77-27.43-5.52"/><path d="m378.36 115.34c0-27.55 20-46.84 50.43-46.84 9.51 0 16.94 1.79 22.19 4.55l-5.25 18.45c-3-2.89-9.5-4.68-16.94-4.68-16.81 0-25.08 12-25.08 28.52 0 18.34 8.41 31.3 23.15 31.3 9.37 0 14.59-1.94 19.85-5.51l4.29 19.43c-4.14 2.75-14.75 5.52-24.12 5.52-34.73 0-48.5-24.13-48.5-50.74"/><path d="m318.46 88.61h11.54c10.48 0 15.73 4.7 15.73 13 0 8.41-6.35 13.77-11.58 13.77h-5.26l-4.1 16.7h5.21a7.54 7.54 0 0 1 7.19 4.55l13.83 27.56h25.22l-16.84-32.19c-1.36-2.48-4.29-6.49-8.41-7.45 11.57-2.75 18.88-13 18.88-25.77 0-18.48-14.76-28.53-35.69-28.53h-40v93.86h24.25z"/><path d="m2.05 232a7 7 0 0 0 5.51 2c4 0 47.82-9.08 73.75-17.44 26.24-8.45 63.2-17.63 88.31-43.2 6.53-6.65 11.59-15.9 13.17-24.41a45.06 45.06 0 0 0 -6.1-32.2c-2.07-3.83-7.51-9-8.12-9.49a104.39 104.39 0 0 0 -31.23-20.58l-135.12 135.22a6.82 6.82 0 0 0 -.57.67 7 7 0 0 0 .4 9.47"/><path d="m197.71 2.05a7 7 0 0 0 -5.51-2c-4 0-52.51 11.33-73.75 17.44-26.49 7.6-63.19 17.63-88.3 43.2-6.53 6.64-11.59 15.89-13.17 24.4a45 45 0 0 0 6.1 32.2c2.07 3.83 7.51 8.95 8.12 9.49a104.27 104.27 0 0 0 31.23 20.58l135.11-135.18a6.82 6.82 0 0 0 .57-.67 7 7 0 0 0 -.4-9.46"/></g></svg>