<svg height="157" viewBox="0 0 675 157" width="675" xmlns="http://www.w3.org/2000/svg"><g fill="none" fill-rule="evenodd" transform="translate(.54 .8894)"><path d="m84.7206 148.6201c14.276-1.467 24.798-6.186 24.798-11.74v-14.166h-68.386v14.166c0 5.554 10.522 10.273 24.798 11.74v3.594c0 1.846 4.228 3.356 9.395 3.356s9.395-1.51 9.395-3.356z" fill="#203451"/><path d="m22.967 40.905 104.718.001c4.892 0 8.895-3.682 8.895-8.182s-4.003-8.181-8.895-8.181l-104.718.001c-4.893 0-8.895 3.681-8.895 8.18 0 4.5 4.002 8.181 8.895 8.181m-12.029 8.1809998h128.776c6.017-.0009998 10.939 3.6810002 10.939 8.1810002 0 4.499-4.923 8.181-10.938 8.1800002h-128.777c-6.016 0-10.938-3.6810002-10.938-8.1800002 0-4.5 4.922-8.1810002 10.938-8.1810002m12.029 24.5430002 104.718-.001c4.893 0 8.895 3.682 8.895 8.181s-4.002 8.182-8.895 8.182l-104.718-.001c-4.892 0-8.895-3.681-8.895-8.181s4.003-8.18 8.895-8.18m12.561 24.542 79.596.001c3.719-.001 6.761 3.68 6.761 8.18-.001 4.499-3.042 8.182-6.761 8.181h-79.596c-3.718 0-6.76-3.681-6.761-8.181.001-4.499 3.042-8.181 6.761-8.181m0-81.808 79.596-.001c3.718.001 6.761-3.681 6.761-8.181-.001-4.499-3.042-8.18-6.761-8.18l-79.596-.001c-3.718.001-6.7600002 3.682-6.7600002 8.182-.0009998 4.499 3.0420002 8.18 6.7600002 8.181" fill="#f49a00"/><path d="m256.5291 94.3972-46.576-60.247h-14.169v87.134h15.186v-61.99l47.945 61.99h12.8v-87.134h-15.186zm60.834 26.887h15.186v-87.134h-15.186zm97.804-72.944h27.634v-14.19h-70.703v14.19h27.634v72.944h15.435zm259.216 29.253c0-25.262-20.357-44.946-45.434-44.9370031-25.08.0100031-45.684 19.9340031-45.684 45.1860031 0 25.262 20.357 44.946 45.435 44.936004 25.079-.010004 45.683-19.934004 45.683-45.185004zm-16.058.249c0 16.554-12.373 30.884-29.376 30.87001-17.046-.01401-29.626-14.51001-29.626-31.11901 0-16.057 11.643-30.176 28.103-30.823 17.56-.689 30.899 13.91 30.899 31.072zm-176.971-7.469v50.911h65.101v-13.817h-49.915v-23.277h43.692v-13.817z" fill="#203451"/><path d="m544.1388 34.1502h-59.953c-3.221 0-5.832 2.611-5.832 5.832v2.153c0 3.221 2.611 5.832 5.832 5.832h59.953c3.221 0 5.832-2.611 5.832-5.832v-2.153c0-3.221-2.611-5.832-5.832-5.832" fill="#f49a00"/></g></svg>