<?xml version="1.0" encoding="UTF-8"?>
<svg width="1440px" height="2096px" viewBox="0 0 1440 2096" version="1.1" xmlns="http://www.w3.org/2000/svg" xmlns:xlink="http://www.w3.org/1999/xlink">
    <!-- Generator: Sketch 61.2 (89653) - https://sketch.com -->
    <title>Group 4</title>
    <desc>Created with Sketch.</desc>
    <g id="design" stroke="none" stroke-width="1" fill="none" fill-rule="evenodd">
        <g id="Desktop-HD">
            <g id="Group-4" transform="translate(-208.000000, -135.000000)">
                <g id="Group-3" transform="translate(164.000000, 0.000000)">
                    <rect id="Rectangle-3" fill="#0F4F69" x="44" y="0" width="1419" height="759"></rect>
                    <path d="M7.26729119,725.323998 C7.26729119,725.323998 707.525134,688.398544 994,493.145118 C1280.47487,297.891692 1394.66571,0.173869749 1394.66571,0.173869749 L1547.77927,5.70521298 L1512.97666,1223.56348 C1512.97666,1223.56348 1497.11217,867.608085 886.756845,801.130309 C587.498806,768.536166 0.282849141,815.780894 0.282849141,815.780894 L7.26729119,725.323998 Z" id="Path-2" fill="#1F8B8B"></path>
                </g>
                <g id="Group-2" transform="translate(0.000000, 1176.000000)">
                    <path d="M97.1883205,148.611606 C97.1883205,148.611606 221.256134,102.511146 508.581478,199.580483 C795.906822,296.649821 893.212704,448.715816 1072.68611,461.081735 C1252.15951,473.447654 1392.85932,473.527035 1392.85932,473.527035 L1397.97504,1037.35824 L0,1055.07802 L97.1883205,148.611606 Z" id="Path-4" fill="#292929"></path>
                    <path d="M1660.2091,17.1817471 C1660.2091,17.1817471 1730.68912,221.334144 1547.24663,262.586213 C1363.80414,303.838283 959.555639,155.69407 793.065568,333.535737 C626.575497,511.377404 939.128058,800.450596 696.616695,935.373176 C454.105331,1070.29576 71,949.75892 71,949.75892 L72.4376924,1053.22883 L1700.73573,1053.22883 L1711.56912,-1.13686838e-13 L1660.2091,17.1817471 Z" id="Path-3" fill="#1F8B8B"></path>
                    <g id="Path-6" transform="translate(1169.609799, 442.641750)" fill="#0F4F69">
                        <path d="M522.914323,0 C522.914323,0 115.491704,142.05812 40.0878253,298.299121 C-35.3160535,454.540121 18.7958656,610.756845 18.7958656,610.756845 L547.258072,611.65432 L522.914323,0 Z" id="Path-5"></path>
                    </g>
                </g>
            </g>
        </g>
    </g>
</svg>